<?xml version="1.0" standalone="no"?>
<!DOCTYPE svg PUBLIC "-//W3C//DTD SVG 20010904//EN"
 "http://www.w3.org/TR/2001/REC-SVG-20010904/DTD/svg10.dtd">
<svg version="1.0" xmlns="http://www.w3.org/2000/svg"
 width="480.000000pt" height="480.000000pt" viewBox="0 0 480.000000 480.000000"
 preserveAspectRatio="xMidYMid meet">
<metadata>
Created by potrace 1.11, written by Peter Selinger 2001-2013
</metadata>
<g transform="translate(0.000000,480.000000) scale(0.100000,-0.100000)"
fill="#000000" stroke="none">
<path d="M2210 4784 c-490 -62 -957 -335 -1246 -727 l-46 -62 -107 -1 c-133
-1 -229 -25 -366 -93 -209 -104 -340 -263 -407 -496 -45 -158 -23 -430 54
-658 42 -129 90 -224 165 -335 l64 -95 -18 -71 c-26 -101 -25 -438 1 -581 73
-399 326 -770 645 -947 l59 -32 5 -58 c3 -31 15 -90 27 -131 l22 -75 -80 -206
-80 -206 393 0 392 0 14 97 14 97 40 7 c74 13 211 78 316 151 14 9 34 3 104
-33 l88 -44 136 0 c134 0 137 1 208 34 64 30 75 32 104 22 18 -6 47 -11 64
-11 18 0 38 -7 45 -15 6 -8 21 -80 33 -160 l21 -145 392 0 392 0 -47 123 c-26
67 -71 184 -101 260 -45 117 -51 141 -42 162 7 14 23 27 39 30 294 63 575 253
751 508 109 158 204 386 238 572 26 144 27 480 1 582 l-19 71 56 80 c137 196
217 422 247 696 13 125 7 213 -22 318 -61 222 -197 386 -404 489 -137 68 -233
92 -366 93 l-107 1 -46 62 c-258 351 -649 602 -1091 700 -91 20 -144 25 -305
28 -107 2 -211 1 -230 -1z m350 -928 c99 -18 189 -43 205 -56 7 -6 17 -10 21
-8 12 3 107 -42 115 -54 3 -5 10 -9 15 -9 33 4 284 -215 284 -246 0 -7 3 -13
8 -13 6 0 44 -56 47 -70 0 -3 7 -16 15 -30 8 -14 15 -27 15 -30 1 -3 7 -18 14
-35 7 -16 15 -41 18 -55 6 -33 6 -34 98 -64 151 -49 319 -168 409 -287 177
-235 217 -505 111 -745 -66 -149 -216 -313 -382 -417 l-41 -26 -12 52 c-16 78
-57 155 -91 172 -16 9 -29 17 -29 20 0 2 11 20 24 40 46 67 70 160 71 270 0
106 -13 169 -52 247 -114 231 -360 210 -453 -39 -99 -265 24 -598 223 -606
l44 -2 -71 -95 c-39 -52 -75 -98 -81 -102 -24 -17 -93 14 -192 88 -52 39 -77
65 -91 96 -28 63 -99 124 -168 144 -49 14 -68 15 -120 5 -77 -14 -137 -14
-223 0 -57 10 -77 9 -124 -5 -31 -9 -72 -29 -89 -45 -24 -21 -48 -30 -90 -35
-77 -10 -119 -39 -138 -96 -13 -41 -24 -51 -110 -108 -52 -35 -123 -83 -158
-108 -35 -24 -69 -44 -77 -44 -8 0 -15 13 -17 32 -3 28 -9 34 -71 59 -40 16
-76 38 -90 55 -81 104 -131 139 -184 128 -26 -5 -37 3 -103 73 -117 122 -180
229 -215 361 -20 78 -20 246 1 326 21 85 93 228 153 308 85 113 249 230 387
279 45 16 64 28 62 38 -8 59 111 270 207 366 43 42 151 125 163 125 6 0 12 4
14 8 4 9 148 84 148 76 0 -2 17 4 39 15 21 11 41 18 43 15 3 -2 21 2 40 11 20
8 65 17 99 20 35 4 66 8 68 11 10 10 242 2 311 -10z m1680 -415 c0 -3 13 -20
29 -37 55 -58 112 -193 132 -308 22 -129 -4 -270 -59 -319 -20 -18 -20 -17
-35 30 -19 60 -43 171 -52 243 -12 92 -42 219 -83 352 l-39 126 54 -40 c29
-22 53 -43 53 -47z m-3620 -63 c-39 -130 -60 -224 -80 -358 -12 -82 -45 -223
-57 -245 -10 -17 -48 34 -69 92 -18 53 -17 203 2 282 25 101 88 223 147 285
45 46 87 79 94 72 1 -1 -15 -59 -37 -128z m2620 -928 c21 -39 -14 -79 -56 -63
-38 14 -21 83 21 83 14 0 29 -8 35 -20z m-1060 -550 c0 -5 -8 -10 -17 -10 -15
0 -16 2 -3 10 19 12 20 12 20 0z m336 -14 c71 -19 231 -101 349 -180 137 -92
152 -95 311 -70 42 6 42 6 92 -58 64 -80 127 -197 147 -273 30 -115 16 -453
-21 -526 -27 -54 -96 -129 -151 -167 -83 -56 -144 -80 -250 -99 -82 -15 -105
-15 -186 -4 -244 35 -433 141 -595 335 -170 203 -255 379 -256 528 -1 108 7
113 96 65 l70 -38 -69 64 -68 65 5 69 c4 58 11 76 45 127 38 56 44 61 102 76
34 9 78 29 97 44 20 15 51 33 68 41 42 18 148 19 214 1z m-815 -398 c43 -122
40 -159 -18 -221 -54 -58 -48 -80 13 -49 l39 20 26 -107 c14 -58 46 -149 71
-201 47 -99 66 -162 94 -316 16 -88 15 -93 -4 -136 -18 -42 -23 -46 -83 -63
-98 -29 -291 -27 -386 3 -135 44 -252 139 -311 255 -52 102 -66 327 -31 487
20 89 117 266 187 341 19 21 32 26 56 23 97 -14 175 -14 221 0 28 8 63 14 80
13 25 -2 31 -8 46 -49z"/>
<path d="M1550 2671 c-74 -23 -131 -74 -171 -153 -137 -268 -10 -651 216 -651
248 0 365 463 179 707 -57 75 -157 118 -224 97z m80 -220 c15 -29 13 -39 -14
-56 -31 -21 -66 -5 -66 28 0 46 59 66 80 28z"/>
</g>
</svg>
